mtllib material.mtl
usemtl material_0
v 0.00309000 -0.04173800 0.01980000
v 0.00309000 -0.04173800 0.01980000
v 0.00309000 -0.04173800 0.01980000
v 0.00309000 -0.04223500 0.02040100
v 0.00309000 -0.04223500 0.02040100
v 0.00309000 -0.04246500 0.02114700
v 0.00309000 -0.04246500 0.02114700
v 0.00309000 -0.04239100 0.02192400
v 0.00309000 -0.04239100 0.02192400
v 0.00309000 -0.04202500 0.02261300
v 0.00309000 -0.04202500 0.02261300
v 0.00309000 -0.04142400 0.02311000
v 0.00309000 -0.04142400 0.02311000
v 0.00309000 -0.04067800 0.02334000
v 0.00309000 -0.04067800 0.02334000
v 0.00309000 -0.03990100 0.02326600
v 0.00309000 -0.03990100 0.02326600
v 0.00309000 -0.03921200 0.02290000
v 0.00309000 -0.03921200 0.02290000
v 0.00309000 -0.03921200 0.02290000
v 0.00109000 -0.03921200 0.02290000
v 0.00109000 -0.03921200 0.02290000
v 0.00109000 -0.03921200 0.02290000
v 0.00109000 -0.03990100 0.02326600
v 0.00109000 -0.03990100 0.02326600
v 0.00109000 -0.04067800 0.02334000
v 0.00109000 -0.04067800 0.02334000
v 0.00109000 -0.04142400 0.02311000
v 0.00109000 -0.04142400 0.02311000
v 0.00109000 -0.04202500 0.02261300
v 0.00109000 -0.04202500 0.02261300
v 0.00109000 -0.04239100 0.02192400
v 0.00109000 -0.04239100 0.02192400
v 0.00109000 -0.04246500 0.02114700
v 0.00109000 -0.04246500 0.02114700
v 0.00109000 -0.04223500 0.02040100
v 0.00109000 -0.04223500 0.02040100
v 0.00109000 -0.04173800 0.01980000
v 0.00109000 -0.04173800 0.01980000
v 0.00109000 -0.04173800 0.01980000
vn -0.00000000 -63.16575100 -77.52475700
vn -0.00000000 77.52475700 -63.16575100
vn 100.00000000 0.00000000 -0.00000000
vn -0.00000000 -88.02498400 -47.45105000
vn 100.00000000 0.00000000 -0.00000000
vn 0.00000000 -99.48321200 -10.15335000
vn 100.00000000 0.00000000 -0.00000000
vn 0.00000000 -95.79602200 28.69010400
vn 100.00000000 0.00000000 -0.00000000
vn 100.00000000 0.00000000 -0.00000000
vn 0.00000000 -77.52475700 63.16575100
vn 100.00000000 0.00000000 -0.00000000
vn 0.00000000 -47.45105000 88.02498400
vn 0.00000000 -10.15335000 99.48321200
vn 100.00000000 0.00000000 -0.00000000
vn 0.00000000 28.69010400 95.79602200
vn 100.00000000 0.00000000 -0.00000000
vn 100.00000000 0.00000000 -0.00000000
vn 0.00000000 63.16575100 77.52475700
vn -0.00000000 77.52475700 -63.16575100
vn -0.00000000 77.52475700 -63.16575100
vn 0.00000000 63.16575100 77.52475700
vn -100.00000000 -0.00000000 0.00000000
vn 0.00000000 28.69010400 95.79602200
vn -100.00000000 -0.00000000 0.00000000
vn -100.00000000 -0.00000000 0.00000000
vn 0.00000000 -10.15335000 99.48321200
vn -100.00000000 -0.00000000 0.00000000
vn 0.00000000 -47.45105000 88.02498400
vn 0.00000000 -77.52475700 63.16575100
vn -100.00000000 -0.00000000 0.00000000
vn 0.00000000 -95.79602200 28.69010400
vn -100.00000000 -0.00000000 0.00000000
vn -100.00000000 -0.00000000 0.00000000
vn 0.00000000 -99.48321200 -10.15335000
vn -0.00000000 -88.02498400 -47.45105000
vn -100.00000000 -0.00000000 0.00000000
vn -0.00000000 77.52475700 -63.16575100
vn -0.00000000 -63.16575100 -77.52475700
vn -100.00000000 -0.00000000 0.00000000
vt -0.20000000 -0.62831900
vt 0.20000000 0.40000000
vt -0.20000000 -0.00000000
vt -0.20000000 -0.70685800
vt -0.18477600 0.07653700
vt -0.20000000 -0.78539800
vt -0.14142100 0.14142100
vt -0.20000000 -0.86393800
vt -0.07653700 0.18477600
vt 0.00000000 0.20000000
vt -0.20000000 -0.94247800
vt 0.07653700 0.18477600
vt -0.20000000 -1.02101800
vt -0.20000000 -1.09955700
vt 0.14142100 0.14142100
vt -0.20000000 -1.17809700
vt 0.18477600 0.07653700
vt 0.20000000 -0.00000000
vt -0.20000000 -1.25663700
vt 0.20000000 -0.00000000
vt -0.00000000 -0.00000000
vt -0.00000000 -1.25663700
vt -0.20000000 -0.00000000
vt 0.00000000 -1.17809700
vt -0.18477600 0.07653700
vt -0.14142100 0.14142100
vt -0.00000000 -1.09955700
vt -0.07653700 0.18477600
vt -0.00000000 -1.02101800
vt 0.00000000 -0.94247800
vt -0.00000000 0.20000000
vt -0.00000000 -0.86393800
vt 0.07653700 0.18477600
vt 0.14142100 0.14142100
vt -0.00000000 -0.78539800
vt 0.00000000 -0.70685800
vt 0.18477600 0.07653700
vt 0.00000000 0.40000000
vt -0.00000000 -0.62831900
vt 0.20000000 -0.00000000
f 39/39/39 1/1/1 36/36/36
f 36/36/36 1/1/1 4/4/4
f 36/36/36 4/4/4 35/35/35
f 35/35/35 4/4/4 6/6/6
f 35/35/35 6/6/6 32/32/32
f 32/32/32 6/6/6 8/8/8
f 32/32/32 8/8/8 30/30/30
f 30/30/30 8/8/8 11/11/11
f 30/30/30 11/11/11 29/29/29
f 29/29/29 11/11/11 13/13/13
f 29/29/29 13/13/13 27/27/27
f 27/27/27 13/13/13 14/14/14
f 27/27/27 14/14/14 24/24/24
f 24/24/24 14/14/14 16/16/16
f 24/24/24 16/16/16 22/22/22
f 22/22/22 16/16/16 19/19/19
f 2/2/2 38/38/38 20/20/20
f 20/20/20 38/38/38 21/21/21
f 23/23/23 40/40/40 25/25/25
f 25/25/25 40/40/40 37/37/37
f 25/25/25 37/37/37 26/26/26
f 26/26/26 37/37/37 34/34/34
f 26/26/26 34/34/34 28/28/28
f 28/28/28 34/34/34 33/33/33
f 28/28/28 33/33/33 31/31/31
f 3/3/3 18/18/18 5/5/5
f 5/5/5 18/18/18 17/17/17
f 5/5/5 17/17/17 7/7/7
f 7/7/7 17/17/17 15/15/15
f 7/7/7 15/15/15 9/9/9
f 9/9/9 15/15/15 12/12/12
f 9/9/9 12/12/12 10/10/10

