mtllib material.mtl
usemtl material_0
v 0.00445000 -0.03150100 0.02810000
v 0.00445000 -0.03150100 0.02810000
v 0.00445000 -0.03150100 0.02810000
v 0.00445000 -0.03150100 0.01460000
v 0.00445000 -0.03150100 0.01460000
v 0.00445000 -0.03150100 0.01460000
v 0.00445000 -0.03242800 0.01445300
v 0.00445000 -0.03242800 0.01445300
v 0.00445000 -0.03326500 0.01402700
v 0.00445000 -0.03326500 0.01402700
v 0.00445000 -0.03392800 0.01336300
v 0.00445000 -0.03392800 0.01336300
v 0.00445000 -0.03435500 0.01252700
v 0.00445000 -0.03435500 0.01252700
v 0.00445000 -0.03450100 0.01160000
v 0.00445000 -0.03450100 0.01160000
v 0.00445000 -0.03450100 0.01160000
v 0.00445000 -0.06020100 0.01160000
v 0.00445000 -0.06020100 0.01160000
v 0.00445000 -0.06020100 0.01160000
v 0.00445000 -0.06020100 0.01364200
v 0.00445000 -0.06020100 0.01364200
v 0.00445000 -0.06020100 0.01364200
v 0.00445000 -0.05874800 0.01457600
v 0.00445000 -0.05874800 0.01457600
v 0.00445000 -0.05751000 0.01577900
v 0.00445000 -0.05751000 0.01577900
v 0.00445000 -0.05653500 0.01720400
v 0.00445000 -0.05653500 0.01720400
v 0.00445000 -0.05586200 0.01879400
v 0.00445000 -0.05586200 0.01879400
v 0.00445000 -0.05551900 0.02048700
v 0.00445000 -0.05551900 0.02048700
v 0.00445000 -0.05551900 0.02221300
v 0.00445000 -0.05551900 0.02221300
v 0.00445000 -0.05586200 0.02390600
v 0.00445000 -0.05586200 0.02390600
v 0.00445000 -0.05653500 0.02549600
v 0.00445000 -0.05653500 0.02549600
v 0.00445000 -0.05751000 0.02692100
v 0.00445000 -0.05751000 0.02692100
v 0.00445000 -0.05874800 0.02812400
v 0.00445000 -0.05874800 0.02812400
v 0.00445000 -0.06020100 0.02905800
v 0.00445000 -0.06020100 0.02905800
v 0.00445000 -0.06020100 0.02905800
v 0.00445000 -0.06020100 0.03110000
v 0.00445000 -0.06020100 0.03110000
v 0.00445000 -0.06020100 0.03110000
v 0.00445000 -0.03450200 0.03110000
v 0.00445000 -0.03450200 0.03110000
v 0.00445000 -0.03450200 0.03110000
v 0.00445000 -0.03435500 0.03017200
v 0.00445000 -0.03435500 0.03017200
v 0.00445000 -0.03392900 0.02933600
v 0.00445000 -0.03392900 0.02933600
v 0.00445000 -0.03326500 0.02867200
v 0.00445000 -0.03326500 0.02867200
v 0.00445000 -0.03242800 0.02824600
v 0.00445000 -0.03242800 0.02824600
v 0.00550200 -0.03150100 0.02810000
v 0.00550200 -0.03150100 0.02810000
v 0.00550200 -0.03150100 0.02810000
v 0.00550200 -0.03242800 0.02824600
v 0.00550200 -0.03242800 0.02824600
v 0.00550200 -0.03326500 0.02867200
v 0.00550200 -0.03326500 0.02867200
v 0.00550200 -0.03392900 0.02933600
v 0.00550200 -0.03392900 0.02933600
v 0.00550200 -0.03435500 0.03017200
v 0.00550200 -0.03435500 0.03017200
v 0.00550200 -0.03450200 0.03110000
v 0.00550200 -0.03450200 0.03110000
v 0.00550200 -0.03450200 0.03110000
v 0.00550200 -0.06020100 0.03110000
v 0.00550200 -0.06020100 0.03110000
v 0.00550200 -0.06020100 0.03110000
v 0.00550200 -0.06020100 0.02905800
v 0.00550200 -0.06020100 0.02905800
v 0.00550200 -0.06020100 0.02905800
v 0.00550200 -0.05874800 0.02812400
v 0.00550200 -0.05874800 0.02812400
v 0.00550200 -0.05751000 0.02692100
v 0.00550200 -0.05751000 0.02692100
v 0.00550200 -0.05653500 0.02549600
v 0.00550200 -0.05653500 0.02549600
v 0.00550200 -0.05586200 0.02390600
v 0.00550200 -0.05586200 0.02390600
v 0.00550200 -0.05551900 0.02221300
v 0.00550200 -0.05551900 0.02221300
v 0.00550200 -0.05551900 0.02048700
v 0.00550200 -0.05551900 0.02048700
v 0.00550200 -0.05586200 0.01879400
v 0.00550200 -0.05586200 0.01879400
v 0.00550200 -0.05653500 0.01720400
v 0.00550200 -0.05653500 0.01720400
v 0.00550200 -0.05751000 0.01577900
v 0.00550200 -0.05751000 0.01577900
v 0.00550200 -0.05874800 0.01457600
v 0.00550200 -0.05874800 0.01457600
v 0.00550200 -0.06020100 0.01364200
v 0.00550200 -0.06020100 0.01364200
v 0.00550200 -0.06020100 0.01364200
v 0.00550200 -0.06020100 0.01160000
v 0.00550200 -0.06020100 0.01160000
v 0.00550200 -0.06020100 0.01160000
v 0.00550200 -0.03450100 0.01160000
v 0.00550200 -0.03450100 0.01160000
v 0.00550200 -0.03450100 0.01160000
v 0.00550200 -0.03435500 0.01252700
v 0.00550200 -0.03435500 0.01252700
v 0.00550200 -0.03392800 0.01336300
v 0.00550200 -0.03392800 0.01336300
v 0.00550200 -0.03326500 0.01402700
v 0.00550200 -0.03326500 0.01402700
v 0.00550200 -0.03242800 0.01445300
v 0.00550200 -0.03242800 0.01445300
v 0.00550200 -0.03150100 0.01460000
v 0.00550200 -0.03150100 0.01460000
v 0.00550200 -0.03150100 0.01460000
vn -100.00000000 -0.00000000 0.00000000
vn -0.00000000 100.00000000 -0.00000000
vn 0.00000000 0.00313200 100.00000000
vn -0.00000000 100.00000000 -0.00000000
vn -0.00000000 -0.02046500 -99.99999800
vn -100.00000000 -0.00000000 0.00000000
vn -100.00000000 -0.00000000 0.00000000
vn -0.00000000 30.89002200 -95.10944500
vn -0.00000000 58.77521500 -80.90410500
vn -100.00000000 -0.00000000 0.00000000
vn -0.00000000 80.90410600 -58.77521300
vn -100.00000000 -0.00000000 0.00000000
vn -0.00000000 95.10944600 -30.89001900
vn -100.00000000 -0.00000000 0.00000000
vn -100.00000000 -0.00000000 0.00000000
vn -0.00000000 -0.00000000 -100.00000000
vn -0.00000000 99.99999800 0.02046700
vn -100.00000000 -0.00000000 0.00000000
vn -0.00000000 -0.00000000 -100.00000000
vn 0.00000000 -100.00000000 0.00000000
vn 0.00000000 -100.00000000 0.00000000
vn 0.00000000 -45.36815500 89.11638800
vn -100.00000000 -0.00000000 0.00000000
vn 0.00000000 -62.16714000 78.32781600
vn -100.00000000 -0.00000000 0.00000000
vn -100.00000000 -0.00000000 0.00000000
vn 0.00000000 -76.48814800 64.41710300
vn -100.00000000 -0.00000000 0.00000000
vn 0.00000000 -87.76034500 47.93873000
vn 0.00000000 -95.53442100 29.54952300
vn -100.00000000 -0.00000000 0.00000000
vn -100.00000000 -0.00000000 0.00000000
vn 0.00000000 -99.50050400 9.98247500
vn -100.00000000 -0.00000000 0.00000000
vn 0.00000000 -99.50050400 -9.98247500
vn -0.00000000 -95.53442100 -29.54952300
vn -100.00000000 -0.00000000 0.00000000
vn -0.00000000 -87.76034500 -47.93873000
vn -100.00000000 -0.00000000 0.00000000
vn -100.00000000 -0.00000000 0.00000000
vn -0.00000000 -76.48814800 -64.41710300
vn -100.00000000 -0.00000000 0.00000000
vn -0.00000000 -62.16714000 -78.32781600
vn -100.00000000 -0.00000000 0.00000000
vn 0.00000000 -100.00000000 0.00000000
vn -0.00000000 -45.36815500 -89.11638800
vn 0.00000000 0.00000000 100.00000000
vn 0.00000000 -100.00000000 0.00000000
vn -100.00000000 -0.00000000 0.00000000
vn 0.00000000 0.00000000 100.00000000
vn -0.00000000 99.99999300 0.03646300
vn -100.00000000 -0.00000000 0.00000000
vn -100.00000000 -0.00000000 0.00000000
vn 0.00000000 95.09682700 30.92884500
vn 0.00000000 80.88957500 58.79521000
vn -100.00000000 -0.00000000 0.00000000
vn -100.00000000 -0.00000000 0.00000000
vn 0.00000000 58.76824500 80.90916700
vn 0.00000000 30.89714700 95.10713100
vn -100.00000000 -0.00000000 0.00000000
vn -0.00000000 100.00000000 -0.00000000
vn 100.00000000 0.00000000 -0.00000000
vn 0.00000000 0.00313200 100.00000000
vn 100.00000000 0.00000000 -0.00000000
vn 0.00000000 30.89714700 95.10713100
vn 100.00000000 0.00000000 -0.00000000
vn 0.00000000 58.76824500 80.90916700
vn 100.00000000 0.00000000 -0.00000000
vn 0.00000000 80.88957500 58.79521000
vn 0.00000000 95.09682700 30.92884500
vn 100.00000000 0.00000000 -0.00000000
vn 0.00000000 0.00000000 100.00000000
vn -0.00000000 99.99999300 0.03646300
vn 100.00000000 0.00000000 -0.00000000
vn 100.00000000 0.00000000 -0.00000000
vn 0.00000000 -100.00000000 0.00000000
vn 0.00000000 0.00000000 100.00000000
vn -0.00000000 -45.36815500 -89.11638800
vn 0.00000000 -100.00000000 0.00000000
vn 100.00000000 0.00000000 -0.00000000
vn 100.00000000 0.00000000 -0.00000000
vn -0.00000000 -62.16714000 -78.32781600
vn -0.00000000 -76.48814800 -64.41710300
vn 100.00000000 0.00000000 -0.00000000
vn 100.00000000 0.00000000 -0.00000000
vn -0.00000000 -87.76034500 -47.93873000
vn -0.00000000 -95.53442100 -29.54952300
vn 100.00000000 0.00000000 -0.00000000
vn 100.00000000 0.00000000 -0.00000000
vn 0.00000000 -99.50050400 -9.98247500
vn 0.00000000 -99.50050400 9.98247500
vn 100.00000000 0.00000000 -0.00000000
vn 100.00000000 0.00000000 -0.00000000
vn 0.00000000 -95.53442100 29.54952300
vn 0.00000000 -87.76034500 47.93873000
vn 100.00000000 0.00000000 -0.00000000
vn 100.00000000 0.00000000 -0.00000000
vn 0.00000000 -76.48814800 64.41710300
vn 0.00000000 -62.16714000 78.32781600
vn 100.00000000 0.00000000 -0.00000000
vn 100.00000000 0.00000000 -0.00000000
vn 0.00000000 -100.00000000 0.00000000
vn 0.00000000 -45.36815500 89.11638800
vn -0.00000000 -0.00000000 -100.00000000
vn 0.00000000 -100.00000000 0.00000000
vn 100.00000000 0.00000000 -0.00000000
vn 100.00000000 0.00000000 -0.00000000
vn -0.00000000 99.99999800 0.02046700
vn -0.00000000 -0.00000000 -100.00000000
vn 100.00000000 0.00000000 -0.00000000
vn -0.00000000 95.10944600 -30.89001900
vn 100.00000000 0.00000000 -0.00000000
vn -0.00000000 80.90410600 -58.77521300
vn -0.00000000 58.77521500 -80.90410500
vn 100.00000000 0.00000000 -0.00000000
vn 100.00000000 0.00000000 -0.00000000
vn -0.00000000 30.89002200 -95.10944500
vn -0.00000000 -0.02046500 -99.99999800
vn 100.00000000 0.00000000 -0.00000000
vn -0.00000000 100.00000000 -0.00000000
vt -0.00000000 -0.00000000
vt 0.00000000 -0.00000000
vt 0.00000000 -0.47129200
vt 0.00000000 1.35000000
vt -0.00000000 -0.00000000
vt 0.00000000 1.35000000
vt -0.09271200 1.36466900
vt -0.00000000 -0.09425300
vt 0.00000000 -0.18850600
vt -0.17635100 1.40727600
vt 0.00000000 -0.28275900
vt -0.24272400 1.47364900
vt -0.00000000 -0.37701200
vt -0.28533100 1.55728800
vt -0.30000000 1.65000000
vt 0.00000000 0.00000000
vt -0.00000000 -0.47126500
vt -2.87000000 1.65000000
vt -0.00000000 2.57000000
vt 0.00000000 -0.00000000
vt 0.00000000 -0.20430000
vt 0.00000000 0.00000000
vt -2.87000000 1.44570000
vt 0.00000000 -0.17296100
vt -2.72470900 1.35239200
vt -2.60084900 1.23208100
vt -0.00000000 -0.34592200
vt -2.50335800 1.08956300
vt -0.00000000 -0.51888300
vt -0.00000000 -0.69184400
vt -2.43612200 0.93051800
vt -2.40182000 0.76128600
vt -0.00000000 -0.86480500
vt -2.40182000 0.58861400
vt 0.00000000 -1.03776600
vt 0.00000000 -1.21072700
vt -2.43612200 0.41938200
vt -0.00000000 -1.38368800
vt -2.50335800 0.26033700
vt -2.60084900 0.11781900
vt -0.00000000 -1.55664900
vt -2.72470900 -0.00249200
vt -0.00000000 -1.72961000
vt -2.87000000 -0.09580000
vt 0.00000000 -0.00000000
vt -0.00000000 -1.90257100
vt 0.00000000 0.00000000
vt -0.00000000 -0.20420000
vt -2.87000000 -0.30000000
vt -0.00000000 -2.56990000
vt -0.00000000 0.00000000
vt -0.30010000 -0.30000000
vt -0.28538500 -0.20728900
vt 0.00000000 -0.09425800
vt 0.00000000 -0.18851700
vt -0.24274800 -0.12365900
vt -0.17636000 -0.05729300
vt 0.00000000 -0.28277500
vt 0.00000000 -0.37703400
vt -0.09271600 -0.01468400
vt 0.10523300 -0.00000000
vt 0.00000000 -0.00000000
vt -0.10523300 -0.47129200
vt 0.09271600 -0.01468400
vt -0.10523300 -0.37703400
vt 0.17636000 -0.05729300
vt -0.10523300 -0.28277500
vt 0.24274800 -0.12365900
vt -0.10523300 -0.18851700
vt -0.10523300 -0.09425800
vt 0.28538500 -0.20728900
vt -0.10523300 -2.56990000
vt -0.10523300 0.00000000
vt 0.30010000 -0.30000000
vt 2.87000000 -0.30000000
vt -0.10523300 -0.20420000
vt -0.10523300 0.00000000
vt -0.10523300 -1.90257100
vt -0.10523300 0.00000000
vt 2.87000000 -0.09580000
vt 2.72470900 -0.00249200
vt -0.10523300 -1.72961000
vt -0.10523300 -1.55664900
vt 2.60084900 0.11781900
vt 2.50335800 0.26033700
vt -0.10523300 -1.38368800
vt -0.10523300 -1.21072700
vt 2.43612200 0.41938200
vt 2.40182000 0.58861400
vt -0.10523300 -1.03776600
vt -0.10523300 -0.86480500
vt 2.40182000 0.76128600
vt 2.43612200 0.93051800
vt -0.10523300 -0.69184400
vt -0.10523300 -0.51888300
vt 2.50335800 1.08956300
vt 2.60084900 1.23208100
vt -0.10523300 -0.34592200
vt -0.10523300 -0.17296100
vt 2.72470900 1.35239200
vt 2.87000000 1.44570000
vt -0.10523300 -0.20430000
vt -0.10523300 0.00000000
vt 0.10523300 2.57000000
vt -0.10523300 0.00000000
vt 2.87000000 1.65000000
vt 0.30000000 1.65000000
vt -0.10523300 -0.47126500
vt 0.10523300 0.00000000
vt 0.28533100 1.55728800
vt -0.10523300 -0.37701200
vt 0.24272400 1.47364900
vt -0.10523300 -0.28275900
vt -0.10523300 -0.18850600
vt 0.17635100 1.40727600
vt 0.09271200 1.36466900
vt -0.10523300 -0.09425300
vt -0.10523300 -0.00000000
vt -0.00000000 1.35000000
vt 0.10523300 1.35000000
f 1/1/1 6/6/6 60/60/60
f 60/60/60 6/6/6 7/7/7
f 60/60/60 7/7/7 57/57/57
f 57/57/57 7/7/7 10/10/10
f 57/57/57 10/10/10 32/32/32
f 32/32/32 10/10/10 31/31/31
f 31/31/31 10/10/10 12/12/12
f 31/31/31 12/12/12 28/28/28
f 28/28/28 12/12/12 14/14/14
f 28/28/28 14/14/14 26/26/26
f 26/26/26 14/14/14 15/15/15
f 26/26/26 15/15/15 25/25/25
f 25/25/25 15/15/15 18/18/18
f 25/25/25 18/18/18 23/23/23
f 32/32/32 34/34/34 57/57/57
f 57/57/57 34/34/34 37/37/37
f 57/57/57 37/37/37 56/56/56
f 56/56/56 37/37/37 39/39/39
f 56/56/56 39/39/39 53/53/53
f 53/53/53 39/39/39 40/40/40
f 53/53/53 40/40/40 52/52/52
f 52/52/52 40/40/40 42/42/42
f 52/52/52 42/42/42 49/49/49
f 49/49/49 42/42/42 44/44/44
f 62/62/62 64/64/64 119/119/119
f 119/119/119 64/64/64 116/116/116
f 116/116/116 64/64/64 66/66/66
f 116/116/116 66/66/66 115/115/115
f 115/115/115 66/66/66 92/92/92
f 115/115/115 92/92/92 93/93/93
f 68/68/68 88/88/88 66/66/66
f 66/66/66 88/88/88 89/89/89
f 66/66/66 89/89/89 92/92/92
f 88/88/88 68/68/68 85/85/85
f 85/85/85 68/68/68 71/71/71
f 85/85/85 71/71/71 84/84/84
f 84/84/84 71/71/71 74/74/74
f 84/84/84 74/74/74 81/81/81
f 81/81/81 74/74/74 75/75/75
f 81/81/81 75/75/75 80/80/80
f 115/115/115 93/93/93 112/112/112
f 112/112/112 93/93/93 96/96/96
f 112/112/112 96/96/96 110/110/110
f 110/110/110 96/96/96 97/97/97
f 110/110/110 97/97/97 107/107/107
f 107/107/107 97/97/97 100/100/100
f 107/107/107 100/100/100 106/106/106
f 106/106/106 100/100/100 101/101/101
f 2/2/2 61/61/61 4/4/4
f 4/4/4 61/61/61 120/120/120
f 5/5/5 118/118/118 8/8/8
f 8/8/8 118/118/118 117/117/117
f 8/8/8 117/117/117 9/9/9
f 9/9/9 117/117/117 114/114/114
f 9/9/9 114/114/114 11/11/11
f 11/11/11 114/114/114 113/113/113
f 11/11/11 113/113/113 13/13/13
f 13/13/13 113/113/113 111/111/111
f 13/13/13 111/111/111 17/17/17
f 17/17/17 111/111/111 108/108/108
f 16/16/16 109/109/109 19/19/19
f 19/19/19 109/109/109 104/104/104
f 20/20/20 105/105/105 21/21/21
f 21/21/21 105/105/105 102/102/102
f 22/22/22 103/103/103 24/24/24
f 24/24/24 103/103/103 99/99/99
f 24/24/24 99/99/99 27/27/27
f 27/27/27 99/99/99 98/98/98
f 27/27/27 98/98/98 29/29/29
f 29/29/29 98/98/98 95/95/95
f 29/29/29 95/95/95 30/30/30
f 30/30/30 95/95/95 94/94/94
f 30/30/30 94/94/94 33/33/33
f 33/33/33 94/94/94 91/91/91
f 33/33/33 91/91/91 35/35/35
f 35/35/35 91/91/91 90/90/90
f 35/35/35 90/90/90 36/36/36
f 36/36/36 90/90/90 87/87/87
f 36/36/36 87/87/87 38/38/38
f 38/38/38 87/87/87 86/86/86
f 38/38/38 86/86/86 41/41/41
f 41/41/41 86/86/86 83/83/83
f 41/41/41 83/83/83 43/43/43
f 43/43/43 83/83/83 82/82/82
f 43/43/43 82/82/82 46/46/46
f 46/46/46 82/82/82 78/78/78
f 45/45/45 79/79/79 48/48/48
f 48/48/48 79/79/79 76/76/76
f 47/47/47 77/77/77 50/50/50
f 50/50/50 77/77/77 72/72/72
f 51/51/51 73/73/73 54/54/54
f 54/54/54 73/73/73 70/70/70
f 54/54/54 70/70/70 55/55/55
f 55/55/55 70/70/70 69/69/69
f 55/55/55 69/69/69 58/58/58
f 58/58/58 69/69/69 67/67/67
f 58/58/58 67/67/67 59/59/59
f 59/59/59 67/67/67 65/65/65
f 59/59/59 65/65/65 3/3/3
f 3/3/3 65/65/65 63/63/63

