mtllib material.mtl
usemtl material_0
v 0.00842500 0.00506800 0.01432000
v 0.00842500 0.00506800 0.01432000
v 0.00842500 0.00506800 0.01432000
v -0.01007500 0.00506800 0.01432000
v -0.01007500 0.00506800 0.01432000
v -0.01007500 0.00506800 0.01432000
v -0.01007500 -0.00263200 0.01432000
v -0.01007500 -0.00263200 0.01432000
v -0.01007500 -0.00263200 0.01432000
v 0.00842500 -0.00263200 0.01432000
v 0.00842500 -0.00263200 0.01432000
v 0.00842500 -0.00263200 0.01432000
v -0.01007500 0.00386800 0.01032000
v -0.01007500 0.00386800 0.01032000
v -0.01007500 0.00386800 0.01032000
v 0.00842500 0.00386800 0.01032000
v 0.00842500 0.00386800 0.01032000
v 0.00842500 0.00386800 0.01032000
v 0.00842500 -0.00143200 0.01032000
v 0.00842500 -0.00143200 0.01032000
v 0.00842500 -0.00143200 0.01032000
v -0.01007500 -0.00143200 0.01032000
v -0.01007500 -0.00143200 0.01032000
v -0.01007500 -0.00143200 0.01032000
v -0.01007500 0.00386800 0.01272000
v -0.01007500 0.00386800 0.01272000
v -0.01007500 0.00386800 0.01272000
v 0.00842500 0.00386800 0.01272000
v 0.00842500 0.00386800 0.01272000
v 0.00842500 0.00386800 0.01272000
v 0.00842500 -0.00263200 0.01392000
v 0.00842500 -0.00263200 0.01392000
v 0.00842500 -0.00263200 0.01392000
v -0.01007500 -0.00263200 0.01392000
v -0.01007500 -0.00263200 0.01392000
v -0.01007500 -0.00263200 0.01392000
v -0.01007500 -0.00143200 0.01272000
v -0.01007500 -0.00143200 0.01272000
v -0.01007500 -0.00143200 0.01272000
v 0.00842500 -0.00143200 0.01272000
v 0.00842500 -0.00143200 0.01272000
v 0.00842500 -0.00143200 0.01272000
v 0.00842500 0.00506800 0.01392000
v 0.00842500 0.00506800 0.01392000
v 0.00842500 0.00506800 0.01392000
v -0.01007500 0.00506800 0.01392000
v -0.01007500 0.00506800 0.01392000
v -0.01007500 0.00506800 0.01392000
vn 0.00000000 0.00000000 100.00000000
vn 100.00000000 -0.00000000 -0.00000000
vn 0.00000000 100.00000000 -0.00000000
vn 0.00000000 0.00000000 100.00000000
vn -100.00000000 0.00000000 0.00000000
vn 0.00000000 100.00000000 -0.00000000
vn -0.00000000 -100.00000000 0.00000000
vn 0.00000000 0.00000000 100.00000000
vn -100.00000000 0.00000000 0.00000000
vn -0.00000000 -100.00000000 0.00000000
vn 100.00000000 -0.00000000 -0.00000000
vn 0.00000000 0.00000000 100.00000000
vn -0.00000000 -0.00000000 -100.00000000
vn 0.00000000 100.00000000 -0.00000000
vn -100.00000000 0.00000000 0.00000000
vn 0.00000000 100.00000000 -0.00000000
vn -0.00000000 -0.00000000 -100.00000000
vn 100.00000000 -0.00000000 -0.00000000
vn -0.00000000 -100.00000000 0.00000000
vn -0.00000000 -0.00000000 -100.00000000
vn 100.00000000 -0.00000000 -0.00000000
vn -0.00000000 -0.00000000 -100.00000000
vn -100.00000000 0.00000000 0.00000000
vn -0.00000000 -100.00000000 0.00000000
vn -0.00000000 70.71067800 -70.71067800
vn -100.00000000 0.00000000 0.00000000
vn 0.00000000 100.00000000 -0.00000000
vn 100.00000000 -0.00000000 -0.00000000
vn 0.00000000 100.00000000 -0.00000000
vn -0.00000000 70.71067800 -70.71067800
vn -0.00000000 -100.00000000 0.00000000
vn 100.00000000 -0.00000000 -0.00000000
vn -0.00000000 -70.71067800 -70.71067800
vn -100.00000000 0.00000000 0.00000000
vn -0.00000000 -100.00000000 0.00000000
vn -0.00000000 -70.71067800 -70.71067800
vn -0.00000000 -70.71067800 -70.71067800
vn -0.00000000 -100.00000000 0.00000000
vn -100.00000000 0.00000000 0.00000000
vn -0.00000000 -70.71067800 -70.71067800
vn 100.00000000 -0.00000000 -0.00000000
vn -0.00000000 -100.00000000 0.00000000
vn 100.00000000 -0.00000000 -0.00000000
vn 0.00000000 100.00000000 -0.00000000
vn -0.00000000 70.71067800 -70.71067800
vn -100.00000000 0.00000000 0.00000000
vn -0.00000000 70.71067800 -70.71067800
vn 0.00000000 100.00000000 -0.00000000
vt -0.92500000 -0.38500000
vt 0.40000000 -0.12000000
vt -0.00000000 -0.20000000
vt 0.92500000 -0.38500000
vt -0.40000000 -0.12000000
vt -0.00000000 -2.05000000
vt -0.00000000 -2.05000000
vt 0.92500000 0.38500000
vt -0.40000000 0.65000000
vt -0.00000000 -0.20000000
vt 0.40000000 0.65000000
vt -0.92500000 0.38500000
vt -0.92500000 -0.26500000
vt -0.00000000 -1.85000000
vt 0.00000000 0.00000000
vt 0.00000000 -0.00000000
vt 0.92500000 -0.26500000
vt 0.00000000 -0.00000000
vt -0.00000000 -0.00000000
vt 0.92500000 0.26500000
vt 0.00000000 0.53000000
vt -0.92500000 0.26500000
vt -0.00000000 0.53000000
vt 0.00000000 -1.85000000
vt -2.05000000 0.16970600
vt -0.24000000 0.00000000
vt 0.24000000 -1.85000000
vt 0.24000000 -0.00000000
vt 0.24000000 0.00000000
vt -0.20000000 0.16970600
vt 0.04000000 -0.20000000
vt 0.36000000 0.65000000
vt -0.20000000 -0.00000000
vt -0.36000000 0.65000000
vt 0.04000000 -2.05000000
vt -2.05000000 0.00000000
vt -2.05000000 -0.16970600
vt -0.24000000 -1.85000000
vt -0.24000000 0.53000000
vt -0.20000000 -0.16970600
vt 0.24000000 0.53000000
vt -0.24000000 0.00000000
vt 0.36000000 -0.12000000
vt -0.04000000 -0.20000000
vt -0.20000000 0.00000000
vt -0.36000000 -0.12000000
vt -2.05000000 0.00000000
vt -0.04000000 -2.05000000
f 1/1/1 4/4/4 12/12/12
f 12/12/12 4/4/4 8/8/8
f 13/13/13 17/17/17 22/22/22
f 22/22/22 17/17/17 20/20/20
f 14/14/14 27/27/27 16/16/16
f 16/16/16 27/27/27 29/29/29
f 33/33/33 36/36/36 40/40/40
f 40/40/40 36/36/36 37/37/37
f 31/31/31 10/10/10 35/35/35
f 35/35/35 10/10/10 7/7/7
f 21/21/21 28/28/28 41/41/41
f 41/41/41 28/28/28 2/2/2
f 41/41/41 2/2/2 11/11/11
f 21/21/21 18/18/18 28/28/28
f 28/28/28 43/43/43 2/2/2
f 11/11/11 32/32/32 41/41/41
f 19/19/19 42/42/42 24/24/24
f 24/24/24 42/42/42 38/38/38
f 34/34/34 9/9/9 39/39/39
f 39/39/39 9/9/9 5/5/5
f 39/39/39 5/5/5 26/26/26
f 26/26/26 5/5/5 46/46/46
f 26/26/26 15/15/15 39/39/39
f 39/39/39 15/15/15 23/23/23
f 30/30/30 25/25/25 45/45/45
f 45/45/45 25/25/25 47/47/47
f 48/48/48 6/6/6 44/44/44
f 44/44/44 6/6/6 3/3/3

