mtllib material.mtl
usemtl material_0
v -0.00157600 -0.00974900 0.00316000
v -0.00157600 -0.00974900 0.00316000
v -0.00157600 -0.00974900 0.00316000
v -0.00087400 -0.00920100 0.00316000
v -0.00087400 -0.00920100 0.00316000
v -0.00000400 -0.00901200 0.00316000
v -0.00000400 -0.00901200 0.00316000
v 0.00086100 -0.00922000 0.00316000
v 0.00086100 -0.00922000 0.00316000
v 0.00155100 -0.00978200 0.00316000
v 0.00155100 -0.00978200 0.00316000
v 0.00192900 -0.01058800 0.00316000
v 0.00192900 -0.01058800 0.00316000
v 0.00192000 -0.01147800 0.00316000
v 0.00192000 -0.01147800 0.00316000
v 0.00152500 -0.01227600 0.00316000
v 0.00152500 -0.01227600 0.00316000
v 0.00152500 -0.01227600 0.00316000
v 0.00152500 -0.01227600 0.00116000
v 0.00152500 -0.01227600 0.00116000
v 0.00152500 -0.01227600 0.00116000
v 0.00192000 -0.01147800 0.00116000
v 0.00192000 -0.01147800 0.00116000
v 0.00192900 -0.01058800 0.00116000
v 0.00192900 -0.01058800 0.00116000
v 0.00155100 -0.00978200 0.00116000
v 0.00155100 -0.00978200 0.00116000
v 0.00086100 -0.00922000 0.00116000
v 0.00086100 -0.00922000 0.00116000
v -0.00000400 -0.00901200 0.00116000
v -0.00000400 -0.00901200 0.00116000
v -0.00087400 -0.00920100 0.00116000
v -0.00087400 -0.00920100 0.00116000
v -0.00157600 -0.00974900 0.00116000
v -0.00157600 -0.00974900 0.00116000
v -0.00157600 -0.00974900 0.00116000
vn -77.52475700 63.16575100 0.00000000
vn -63.16575100 -77.52475700 0.00000000
vn 0.00000000 0.00000000 100.00000000
vn -42.44080000 90.54710600 0.00000000
vn 0.00000000 0.00000000 100.00000000
vn 1.04907700 99.99449700 -0.00000000
vn 0.00000000 0.00000000 100.00000000
vn 44.33117200 89.63675100 -0.00000000
vn 0.00000000 0.00000000 100.00000000
vn 0.00000000 0.00000000 100.00000000
vn 78.83293500 61.52534700 -0.00000000
vn 97.72086800 21.22809400 -0.00000000
vn 0.00000000 0.00000000 100.00000000
vn 0.00000000 0.00000000 100.00000000
vn 97.25398500 -23.27364400 -0.00000000
vn 0.00000000 0.00000000 100.00000000
vn -63.16575100 -77.52475700 0.00000000
vn 77.52475700 -63.16575100 -0.00000000
vn 77.52475700 -63.16575100 -0.00000000
vn -63.16575100 -77.52475700 0.00000000
vn -0.00000000 -0.00000000 -100.00000000
vn -0.00000000 -0.00000000 -100.00000000
vn 97.25398500 -23.27364400 -0.00000000
vn -0.00000000 -0.00000000 -100.00000000
vn 97.72086800 21.22809400 -0.00000000
vn 78.83293500 61.52534700 -0.00000000
vn -0.00000000 -0.00000000 -100.00000000
vn 44.33117200 89.63675100 -0.00000000
vn -0.00000000 -0.00000000 -100.00000000
vn -0.00000000 -0.00000000 -100.00000000
vn 1.04907700 99.99449700 -0.00000000
vn -42.44080000 90.54710600 0.00000000
vn -0.00000000 -0.00000000 -100.00000000
vn -63.16575100 -77.52475700 0.00000000
vn -77.52475700 63.16575100 0.00000000
vn -0.00000000 -0.00000000 -100.00000000
vt -0.20000000 -0.62831900
vt 0.20000000 0.40000000
vt -0.20000000 0.00000000
vt -0.20000000 -0.71807800
vt -0.18019400 0.08677700
vt -0.20000000 -0.80783800
vt -0.12469800 0.15636600
vt -0.20000000 -0.89759800
vt -0.04450400 0.19498600
vt 0.04450400 0.19498600
vt -0.20000000 -0.98735800
vt -0.20000000 -1.07711700
vt 0.12469800 0.15636600
vt 0.18019400 0.08677700
vt -0.20000000 -1.16687700
vt 0.20000000 -0.00000000
vt 0.20000000 -0.00000000
vt -0.20000000 -1.25663700
vt -0.00000000 -1.25663700
vt 0.00000000 0.00000000
vt -0.20000000 -0.00000000
vt -0.18019400 0.08677700
vt 0.00000000 -1.16687700
vt -0.12469800 0.15636600
vt -0.00000000 -1.07711700
vt 0.00000000 -0.98735800
vt -0.04450400 0.19498600
vt -0.00000000 -0.89759800
vt 0.04450400 0.19498600
vt 0.12469800 0.15636600
vt -0.00000000 -0.80783800
vt -0.00000000 -0.71807800
vt 0.18019400 0.08677700
vt 0.00000000 0.40000000
vt -0.00000000 -0.62831900
vt 0.20000000 -0.00000000
f 35/35/35 1/1/1 32/32/32
f 32/32/32 1/1/1 4/4/4
f 32/32/32 4/4/4 31/31/31
f 31/31/31 4/4/4 6/6/6
f 31/31/31 6/6/6 28/28/28
f 28/28/28 6/6/6 8/8/8
f 28/28/28 8/8/8 26/26/26
f 26/26/26 8/8/8 11/11/11
f 26/26/26 11/11/11 25/25/25
f 25/25/25 11/11/11 12/12/12
f 25/25/25 12/12/12 23/23/23
f 23/23/23 12/12/12 15/15/15
f 23/23/23 15/15/15 19/19/19
f 19/19/19 15/15/15 18/18/18
f 2/2/2 34/34/34 17/17/17
f 17/17/17 34/34/34 20/20/20
f 21/21/21 36/36/36 22/22/22
f 22/22/22 36/36/36 33/33/33
f 22/22/22 33/33/33 24/24/24
f 24/24/24 33/33/33 30/30/30
f 24/24/24 30/30/30 27/27/27
f 27/27/27 30/30/30 29/29/29
f 3/3/3 16/16/16 5/5/5
f 5/5/5 16/16/16 14/14/14
f 5/5/5 14/14/14 7/7/7
f 7/7/7 14/14/14 13/13/13
f 7/7/7 13/13/13 9/9/9
f 9/9/9 13/13/13 10/10/10

