mtllib material.mtl
usemtl material_0
v 0.00672400 -0.01998600 0.00452000
v 0.00672400 -0.01998600 0.00452000
v 0.00672400 -0.01998600 0.00452000
v -0.00677600 -0.01998600 0.00452000
v -0.00677600 -0.01998600 0.00452000
v -0.00677600 -0.01998600 0.00452000
v -0.00692200 -0.01905900 0.00452000
v -0.00692200 -0.01905900 0.00452000
v -0.00734800 -0.01822300 0.00452000
v -0.00734800 -0.01822300 0.00452000
v -0.00801200 -0.01755900 0.00452000
v -0.00801200 -0.01755900 0.00452000
v -0.00884900 -0.01713300 0.00452000
v -0.00884900 -0.01713300 0.00452000
v -0.00977600 -0.01698600 0.00452000
v -0.00977600 -0.01698600 0.00452000
v -0.00977600 -0.01698600 0.00452000
v -0.00977600 0.00871400 0.00452000
v -0.00977600 0.00871400 0.00452000
v -0.00977600 0.00871400 0.00452000
v -0.00773300 0.00871400 0.00452000
v -0.00773300 0.00871400 0.00452000
v -0.00773300 0.00871400 0.00452000
v -0.00669100 0.00712700 0.00452000
v -0.00669100 0.00712700 0.00452000
v -0.00532700 0.00580500 0.00452000
v -0.00532700 0.00580500 0.00452000
v -0.00370900 0.00481200 0.00452000
v -0.00370900 0.00481200 0.00452000
v -0.00191200 0.00419700 0.00452000
v -0.00191200 0.00419700 0.00452000
v -0.00002500 0.00398900 0.00452000
v -0.00002500 0.00398900 0.00452000
v 0.00186200 0.00419700 0.00452000
v 0.00186200 0.00419700 0.00452000
v 0.00365800 0.00481200 0.00452000
v 0.00365800 0.00481200 0.00452000
v 0.00527700 0.00580500 0.00452000
v 0.00527700 0.00580500 0.00452000
v 0.00664000 0.00712700 0.00452000
v 0.00664000 0.00712700 0.00452000
v 0.00768200 0.00871400 0.00452000
v 0.00768200 0.00871400 0.00452000
v 0.00768200 0.00871400 0.00452000
v 0.00972400 0.00871400 0.00452000
v 0.00972400 0.00871400 0.00452000
v 0.00972400 0.00871400 0.00452000
v 0.00972400 -0.01698500 0.00452000
v 0.00972400 -0.01698500 0.00452000
v 0.00972400 -0.01698500 0.00452000
v 0.00879700 -0.01713200 0.00452000
v 0.00879700 -0.01713200 0.00452000
v 0.00796100 -0.01755900 0.00452000
v 0.00796100 -0.01755900 0.00452000
v 0.00729700 -0.01822300 0.00452000
v 0.00729700 -0.01822300 0.00452000
v 0.00687100 -0.01905900 0.00452000
v 0.00687100 -0.01905900 0.00452000
v 0.00672400 -0.01998600 0.00557200
v 0.00672400 -0.01998600 0.00557200
v 0.00672400 -0.01998600 0.00557200
v 0.00687100 -0.01905900 0.00557200
v 0.00687100 -0.01905900 0.00557200
v 0.00729700 -0.01822300 0.00557200
v 0.00729700 -0.01822300 0.00557200
v 0.00796100 -0.01755900 0.00557200
v 0.00796100 -0.01755900 0.00557200
v 0.00879700 -0.01713200 0.00557200
v 0.00879700 -0.01713200 0.00557200
v 0.00972400 -0.01698500 0.00557200
v 0.00972400 -0.01698500 0.00557200
v 0.00972400 -0.01698500 0.00557200
v 0.00972400 0.00871400 0.00557200
v 0.00972400 0.00871400 0.00557200
v 0.00972400 0.00871400 0.00557200
v 0.00768200 0.00871400 0.00557200
v 0.00768200 0.00871400 0.00557200
v 0.00768200 0.00871400 0.00557200
v 0.00664000 0.00712700 0.00557200
v 0.00664000 0.00712700 0.00557200
v 0.00527700 0.00580500 0.00557200
v 0.00527700 0.00580500 0.00557200
v 0.00365800 0.00481200 0.00557200
v 0.00365800 0.00481200 0.00557200
v 0.00186200 0.00419700 0.00557200
v 0.00186200 0.00419700 0.00557200
v -0.00002500 0.00398900 0.00557200
v -0.00002500 0.00398900 0.00557200
v -0.00191200 0.00419700 0.00557200
v -0.00191200 0.00419700 0.00557200
v -0.00370900 0.00481200 0.00557200
v -0.00370900 0.00481200 0.00557200
v -0.00532700 0.00580500 0.00557200
v -0.00532700 0.00580500 0.00557200
v -0.00669100 0.00712700 0.00557200
v -0.00669100 0.00712700 0.00557200
v -0.00773300 0.00871400 0.00557200
v -0.00773300 0.00871400 0.00557200
v -0.00773300 0.00871400 0.00557200
v -0.00977600 0.00871400 0.00557200
v -0.00977600 0.00871400 0.00557200
v -0.00977600 0.00871400 0.00557200
v -0.00977600 -0.01698600 0.00557200
v -0.00977600 -0.01698600 0.00557200
v -0.00977600 -0.01698600 0.00557200
v -0.00884900 -0.01713300 0.00557200
v -0.00884900 -0.01713300 0.00557200
v -0.00801200 -0.01755900 0.00557200
v -0.00801200 -0.01755900 0.00557200
v -0.00734800 -0.01822300 0.00557200
v -0.00734800 -0.01822300 0.00557200
v -0.00692200 -0.01905900 0.00557200
v -0.00692200 -0.01905900 0.00557200
v -0.00677600 -0.01998600 0.00557200
v -0.00677600 -0.01998600 0.00557200
v -0.00677600 -0.01998600 0.00557200
vn -0.00000000 -0.00000000 -100.00000000
vn -0.00000000 -100.00000000 0.00000000
vn 100.00000000 -0.00313200 -0.00000000
vn -0.00000000 -100.00000000 0.00000000
vn -99.99999800 0.02046500 0.00000000
vn -0.00000000 -0.00000000 -100.00000000
vn -0.00000000 -0.00000000 -100.00000000
vn -95.10944500 -30.89002200 0.00000000
vn -80.90410500 -58.77521500 0.00000000
vn -0.00000000 -0.00000000 -100.00000000
vn -58.77521300 -80.90410600 0.00000000
vn -0.00000000 -0.00000000 -100.00000000
vn -0.00000000 -0.00000000 -100.00000000
vn -30.89001900 -95.10944600 0.00000000
vn 0.02046700 -99.99999800 0.00000000
vn -0.00000000 -0.00000000 -100.00000000
vn -100.00000000 0.00000000 0.00000000
vn 0.00000000 100.00000000 -0.00000000
vn -0.00000000 -0.00000000 -100.00000000
vn -100.00000000 0.00000000 0.00000000
vn 89.11638800 45.36815500 -0.00000000
vn 0.00000000 100.00000000 -0.00000000
vn -0.00000000 -0.00000000 -100.00000000
vn -0.00000000 -0.00000000 -100.00000000
vn 77.06900200 63.72102500 -0.00000000
vn -0.00000000 -0.00000000 -100.00000000
vn 61.30714200 79.00274900 -0.00000000
vn -0.00000000 -0.00000000 -100.00000000
vn 42.59047700 90.47679900 -0.00000000
vn 21.82109100 97.59016300 -0.00000000
vn -0.00000000 -0.00000000 -100.00000000
vn -0.00000000 -0.00000000 -100.00000000
vn 0.00000000 100.00000000 -0.00000000
vn -0.00000000 -0.00000000 -100.00000000
vn -21.82109100 97.59016300 0.00000000
vn -42.59047700 90.47679900 0.00000000
vn -0.00000000 -0.00000000 -100.00000000
vn -61.30714200 79.00274900 0.00000000
vn -0.00000000 -0.00000000 -100.00000000
vn -77.06900200 63.72102500 0.00000000
vn -0.00000000 -0.00000000 -100.00000000
vn -0.00000000 -0.00000000 -100.00000000
vn -89.11638800 45.36815500 0.00000000
vn 0.00000000 100.00000000 -0.00000000
vn 100.00000000 -0.00000000 -0.00000000
vn 0.00000000 100.00000000 -0.00000000
vn -0.00000000 -0.00000000 -100.00000000
vn 100.00000000 -0.00000000 -0.00000000
vn 0.03646300 -99.99999300 0.00000000
vn -0.00000000 -0.00000000 -100.00000000
vn -0.00000000 -0.00000000 -100.00000000
vn 30.92884500 -95.09682700 -0.00000000
vn 58.79521000 -80.88957500 -0.00000000
vn -0.00000000 -0.00000000 -100.00000000
vn -0.00000000 -0.00000000 -100.00000000
vn 80.90916700 -58.76824500 -0.00000000
vn 95.10713100 -30.89714700 -0.00000000
vn -0.00000000 -0.00000000 -100.00000000
vn 0.00000000 0.00000000 100.00000000
vn -0.00000000 -100.00000000 0.00000000
vn 100.00000000 -0.00313200 -0.00000000
vn 95.10713100 -30.89714700 -0.00000000
vn 0.00000000 0.00000000 100.00000000
vn 0.00000000 0.00000000 100.00000000
vn 80.90916700 -58.76824500 -0.00000000
vn 58.79521000 -80.88957500 -0.00000000
vn 0.00000000 0.00000000 100.00000000
vn 0.00000000 0.00000000 100.00000000
vn 30.92884500 -95.09682700 -0.00000000
vn 0.00000000 0.00000000 100.00000000
vn 0.03646300 -99.99999300 0.00000000
vn 100.00000000 -0.00000000 -0.00000000
vn 0.00000000 0.00000000 100.00000000
vn 0.00000000 100.00000000 -0.00000000
vn 100.00000000 -0.00000000 -0.00000000
vn 0.00000000 100.00000000 -0.00000000
vn -89.11638800 45.36815500 0.00000000
vn 0.00000000 0.00000000 100.00000000
vn 0.00000000 0.00000000 100.00000000
vn -77.06900200 63.72102500 0.00000000
vn -61.30714200 79.00274900 0.00000000
vn 0.00000000 0.00000000 100.00000000
vn 0.00000000 0.00000000 100.00000000
vn -42.59047700 90.47679900 0.00000000
vn -21.82109100 97.59016300 0.00000000
vn 0.00000000 0.00000000 100.00000000
vn 0.00000000 0.00000000 100.00000000
vn 0.00000000 100.00000000 -0.00000000
vn 21.82109100 97.59016300 -0.00000000
vn 0.00000000 0.00000000 100.00000000
vn 0.00000000 0.00000000 100.00000000
vn 42.59047700 90.47679900 -0.00000000
vn 61.30714200 79.00274900 -0.00000000
vn 0.00000000 0.00000000 100.00000000
vn 0.00000000 0.00000000 100.00000000
vn 77.06900200 63.72102500 -0.00000000
vn 89.11638800 45.36815500 -0.00000000
vn 0.00000000 0.00000000 100.00000000
vn 0.00000000 100.00000000 -0.00000000
vn 0.00000000 100.00000000 -0.00000000
vn 0.00000000 0.00000000 100.00000000
vn -100.00000000 0.00000000 0.00000000
vn 0.02046700 -99.99999800 0.00000000
vn -100.00000000 0.00000000 0.00000000
vn 0.00000000 0.00000000 100.00000000
vn -30.89001900 -95.10944600 0.00000000
vn 0.00000000 0.00000000 100.00000000
vn 0.00000000 0.00000000 100.00000000
vn -58.77521300 -80.90410600 0.00000000
vn -80.90410500 -58.77521500 0.00000000
vn 0.00000000 0.00000000 100.00000000
vn 0.00000000 0.00000000 100.00000000
vn -95.10944500 -30.89002200 0.00000000
vn -0.00000000 -100.00000000 0.00000000
vn 0.00000000 0.00000000 100.00000000
vn -99.99999800 0.02046500 0.00000000
vt 0.00000000 0.00000000
vt -0.00000000 0.00000000
vt 0.00000000 -0.47129200
vt 0.00000000 1.35000000
vt -0.00000000 -0.00000000
vt -0.00000000 1.35000000
vt -0.09271200 1.36466900
vt 0.00000000 -0.09425300
vt 0.00000000 -0.18850600
vt -0.17635100 1.40727600
vt 0.00000000 -0.28275900
vt -0.24272400 1.47364900
vt -0.28533100 1.55728800
vt -0.00000000 -0.37701200
vt -0.00000000 -0.47126500
vt -0.30000000 1.65000000
vt 0.00000000 0.00000000
vt -0.00000000 0.00000000
vt -2.87000000 1.65000000
vt -0.00000000 2.57000000
vt 0.00000000 0.00000000
vt 0.00000000 -0.20430000
vt -2.87000000 1.44570000
vt -2.71127000 1.34150500
vt -0.00000000 -0.19025700
vt -2.57910100 1.20518300
vt -0.00000000 -0.38051400
vt -2.47986400 1.04330700
vt 0.00000000 -0.57077100
vt 0.00000000 -0.76102800
vt -2.41834200 0.86367600
vt -2.39750000 0.67495000
vt 0.00000000 -0.95128500
vt -2.41834200 0.48622400
vt 0.00000000 -1.14154200
vt -0.00000000 -1.33180000
vt -2.47986400 0.30659300
vt -0.00000000 -1.52205700
vt -2.57910100 0.14471700
vt 0.00000000 -1.71231400
vt -2.71127000 0.00839500
vt -2.87000000 -0.09580000
vt 0.00000000 -1.90257100
vt -0.00000000 0.00000000
vt -0.00000000 0.00000000
vt -0.00000000 -0.20420000
vt -2.87000000 -0.30000000
vt 0.00000000 -2.56990000
vt 0.00000000 0.00000000
vt -0.30010000 -0.30000000
vt -0.28538500 -0.20728900
vt 0.00000000 -0.09425800
vt -0.00000000 -0.18851700
vt -0.24274800 -0.12365900
vt -0.17636000 -0.05729300
vt -0.00000000 -0.28277500
vt 0.00000000 -0.37703400
vt -0.09271600 -0.01468400
vt -0.00000000 0.00000000
vt 0.10523300 0.00000000
vt -0.10523300 -0.47129200
vt -0.10523300 -0.37703400
vt 0.09271600 -0.01468400
vt 0.17636000 -0.05729300
vt -0.10523300 -0.28277500
vt -0.10523300 -0.18851700
vt 0.24274800 -0.12365900
vt 0.28538500 -0.20728900
vt -0.10523300 -0.09425800
vt 0.30010000 -0.30000000
vt -0.10523300 0.00000000
vt -0.10523300 -2.56990000
vt 2.87000000 -0.30000000
vt -0.10523300 -0.20420000
vt -0.10523300 -0.00000000
vt -0.10523300 0.00000000
vt -0.10523300 -1.90257100
vt 2.87000000 -0.09580000
vt 2.71127000 0.00839500
vt -0.10523300 -1.71231400
vt -0.10523300 -1.52205700
vt 2.57910100 0.14471700
vt 2.47986400 0.30659300
vt -0.10523300 -1.33180000
vt -0.10523300 -1.14154200
vt 2.41834200 0.48622400
vt 2.39750000 0.67495000
vt -0.10523300 -0.95128500
vt -0.10523300 -0.76102800
vt 2.41834200 0.86367600
vt 2.47986400 1.04330700
vt -0.10523300 -0.57077100
vt -0.10523300 -0.38051400
vt 2.57910100 1.20518300
vt 2.71127000 1.34150500
vt -0.10523300 -0.19025700
vt -0.10523300 0.00000000
vt 2.87000000 1.44570000
vt -0.10523300 -0.20430000
vt -0.10523300 0.00000000
vt 2.87000000 1.65000000
vt 0.10523300 2.57000000
vt -0.10523300 -0.47126500
vt 0.10523300 0.00000000
vt 0.30000000 1.65000000
vt -0.10523300 -0.37701200
vt 0.28533100 1.55728800
vt 0.24272400 1.47364900
vt -0.10523300 -0.28275900
vt -0.10523300 -0.18850600
vt 0.17635100 1.40727600
vt 0.09271200 1.36466900
vt -0.10523300 -0.09425300
vt 0.10523300 1.35000000
vt -0.00000000 1.35000000
vt -0.10523300 0.00000000
f 1/1/1 6/6/6 58/58/58
f 58/58/58 6/6/6 7/7/7
f 58/58/58 7/7/7 55/55/55
f 55/55/55 7/7/7 10/10/10
f 55/55/55 10/10/10 32/32/32
f 32/32/32 10/10/10 31/31/31
f 31/31/31 10/10/10 12/12/12
f 31/31/31 12/12/12 28/28/28
f 28/28/28 12/12/12 13/13/13
f 28/28/28 13/13/13 26/26/26
f 26/26/26 13/13/13 16/16/16
f 26/26/26 16/16/16 24/24/24
f 24/24/24 16/16/16 19/19/19
f 24/24/24 19/19/19 23/23/23
f 32/32/32 34/34/34 55/55/55
f 55/55/55 34/34/34 54/54/54
f 54/54/54 34/34/34 37/37/37
f 54/54/54 37/37/37 51/51/51
f 51/51/51 37/37/37 39/39/39
f 51/51/51 39/39/39 50/50/50
f 50/50/50 39/39/39 41/41/41
f 50/50/50 41/41/41 47/47/47
f 47/47/47 41/41/41 42/42/42
f 59/59/59 63/63/63 115/115/115
f 115/115/115 63/63/63 112/112/112
f 112/112/112 63/63/63 64/64/64
f 112/112/112 64/64/64 111/111/111
f 111/111/111 64/64/64 87/87/87
f 111/111/111 87/87/87 90/90/90
f 87/87/87 64/64/64 86/86/86
f 86/86/86 64/64/64 67/67/67
f 86/86/86 67/67/67 83/83/83
f 83/83/83 67/67/67 68/68/68
f 83/83/83 68/68/68 82/82/82
f 82/82/82 68/68/68 70/70/70
f 82/82/82 70/70/70 79/79/79
f 79/79/79 70/70/70 73/73/73
f 79/79/79 73/73/73 78/78/78
f 111/111/111 90/90/90 108/108/108
f 108/108/108 90/90/90 91/91/91
f 108/108/108 91/91/91 107/107/107
f 107/107/107 91/91/91 94/94/94
f 107/107/107 94/94/94 105/105/105
f 105/105/105 94/94/94 95/95/95
f 105/105/105 95/95/95 101/101/101
f 101/101/101 95/95/95 98/98/98
f 2/2/2 60/60/60 4/4/4
f 4/4/4 60/60/60 114/114/114
f 5/5/5 116/116/116 8/8/8
f 8/8/8 116/116/116 113/113/113
f 8/8/8 113/113/113 110/110/110
f 8/8/8 110/110/110 9/9/9
f 9/9/9 110/110/110 109/109/109
f 9/9/9 109/109/109 11/11/11
f 11/11/11 109/109/109 106/106/106
f 11/11/11 106/106/106 14/14/14
f 14/14/14 106/106/106 15/15/15
f 15/15/15 106/106/106 103/103/103
f 17/17/17 104/104/104 20/20/20
f 20/20/20 104/104/104 102/102/102
f 18/18/18 100/100/100 22/22/22
f 22/22/22 100/100/100 99/99/99
f 21/21/21 97/97/97 25/25/25
f 25/25/25 97/97/97 96/96/96
f 25/25/25 96/96/96 27/27/27
f 27/27/27 96/96/96 93/93/93
f 27/27/27 93/93/93 29/29/29
f 29/29/29 93/93/93 92/92/92
f 29/29/29 92/92/92 30/30/30
f 30/30/30 92/92/92 89/89/89
f 30/30/30 89/89/89 33/33/33
f 33/33/33 89/89/89 88/88/88
f 33/33/33 88/88/88 35/35/35
f 35/35/35 88/88/88 85/85/85
f 35/35/35 85/85/85 36/36/36
f 36/36/36 85/85/85 84/84/84
f 36/36/36 84/84/84 38/38/38
f 38/38/38 84/84/84 81/81/81
f 38/38/38 81/81/81 40/40/40
f 40/40/40 81/81/81 80/80/80
f 40/40/40 80/80/80 43/43/43
f 43/43/43 80/80/80 77/77/77
f 44/44/44 76/76/76 46/46/46
f 46/46/46 76/76/76 74/74/74
f 45/45/45 75/75/75 48/48/48
f 48/48/48 75/75/75 72/72/72
f 49/49/49 71/71/71 52/52/52
f 52/52/52 71/71/71 69/69/69
f 52/52/52 69/69/69 66/66/66
f 52/52/52 66/66/66 53/53/53
f 53/53/53 66/66/66 65/65/65
f 53/53/53 65/65/65 56/56/56
f 56/56/56 65/65/65 62/62/62
f 56/56/56 62/62/62 57/57/57
f 57/57/57 62/62/62 3/3/3
f 3/3/3 62/62/62 61/61/61

